Coordinates
version=1
nRows=16
nColumns=36
inDegrees=yes

Units are S.I. units (second, meters, Newtons, ...)
If the header above contains a line with 'inDegrees', this indicates whether rotational values are in degrees (yes) or radians (no).

endheader
time	pelvis_tilt	pelvis_list	pelvis_rotation	pelvis_tx	pelvis_ty	pelvis_tz	hip_flexion_r	hip_adduction_r	hip_rotation_r	knee_angle_r	knee_angle_r_beta	ankle_angle_r	subtalar_angle_r	mtp_angle_r	hip_flexion_l	hip_adduction_l	hip_rotation_l	knee_angle_l	knee_angle_l_beta	ankle_angle_l	subtalar_angle_l	mtp_angle_l	lumbar_extension	lumbar_bending	lumbar_rotation	arm_flex_r	arm_add_r	arm_rot_r	elbow_flex_r	pro_sup_r	arm_flex_l	arm_add_l	arm_rot_l	elbow_flex_l	pro_sup_l
      0.75000000	    -10.83972506	      0.06464438	      0.39371741	     -0.72423974	      1.50414847	     -0.56310460	     32.58538941	     -0.00615328	      7.19768090	     64.58741875	      1.12726311	    -20.31600957	     -5.56678929	     -5.45746522	     25.87557297	     -8.61638079	     -2.77024541	     64.25622177	      1.12148263	    -27.46344338	    -14.90572290	     -5.45746522	    -14.21354041	     -3.33544019	      8.62506238	    -28.87021964	    -32.38132984	    -29.61247952	    136.74351922	    113.38239154	     18.23163608	    -35.21887838	     14.25386942	    133.43522228	     99.09460594
      0.76000000	    -10.90276039	      0.04311128	      0.81010281	     -0.71652106	      1.50693896	     -0.56172729	     33.69648088	     -0.25797912	      6.83305203	     64.60389677	      1.12755071	    -19.87538494	     -5.58767693	     -5.47839553	     27.74300904	     -8.98182664	     -2.01425622	     66.72244922	      1.16452642	    -26.50979196	    -15.79477887	     -5.47839553	    -14.78503401	     -3.41338162	      8.13797558	    -29.32573823	    -32.07296756	    -30.15576431	    136.28030980	    113.35773406	     18.21047985	    -35.52944988	     13.84713033	    133.04712840	     99.11982110
      0.77000000	    -11.06618465	      0.04958614	      1.19590863	     -0.70883860	      1.50889104	     -0.56031830	     34.76686555	     -0.53631671	      6.53910645	     64.12411666	      1.11917697	    -19.50995202	     -5.59034699	     -5.49738315	     29.62683513	     -9.32100220	     -1.33326728	     68.75460649	      1.19999426	    -26.05066151	    -16.17593239	     -5.49738315	    -15.25733042	     -3.53776648	      7.68050143	    -29.64868220	    -31.73649561	    -30.84185267	    135.64119088	    113.31557328	     18.25396951	    -35.81280114	     13.50668214	    132.54991349	     99.12706253
      0.78000000	    -11.28039684	      0.06424236	      1.49343875	     -0.70104146	      1.51009507	     -0.55887444	     35.73815637	     -0.81520876	      6.29225981	     63.15316767	      1.10223071	    -19.19993815	     -5.64372258	     -5.52832772	     31.43414198	     -9.67186694	     -0.76940795	     70.35441563	      1.22791620	    -25.97300056	    -16.14314763	     -5.52832772	    -15.68962198	     -3.67262140	      7.38397420	    -30.10104709	    -31.40017822	    -31.56253244	    135.09273073	    113.31980447	     18.37074921	    -36.05614875	     13.26011135	    131.98058657	     99.18264891
      0.79000000	    -11.08812452	      0.43139506	      1.47001527	     -0.69281994	      1.51134787	     -0.55719023	     36.14539058	     -1.29687203	      6.39920284	     61.74889199	      1.07772147	    -18.95598321	     -5.75306026	     -5.53110464	     32.42822805	     -9.85432867	     -0.80943855	     71.31700866	      1.24471661	    -26.06231156	    -16.14492542	     -5.53110464	    -16.61415430	     -4.23767614	      7.18275583	    -30.27774224	    -31.23678688	    -31.72367940	    134.75385948	    113.29350951	     18.43339875	    -36.37352366	     13.04430743	    131.61413072	     99.14138280
      0.80000000	    -11.30098160	      0.37276016	      1.98777983	     -0.68476360	      1.51132966	     -0.55585199	     36.71895661	     -1.67690582	      5.82864509	     59.86711416	      1.04487826	    -18.24314528	     -6.27602035	     -5.54516293	     34.06769751	    -10.10357451	     -0.06166816	     72.02670985	      1.25710324	    -26.36132589	    -15.99300649	     -5.54516293	    -17.07550110	     -4.25881090	      6.64040590	    -30.46758823	    -30.62039445	    -32.54424680	    134.05974998	    113.20957702	     18.47333088	    -36.69491098	     12.62912659	    130.92983936	     99.11146244
      0.81000000	    -11.46155263	      0.55081496	      2.15241542	     -0.67644536	      1.51058542	     -0.55423800	     37.16667070	     -2.09540571	      5.66673423	     57.68512724	      1.00679540	    -17.68289822	     -6.72813115	     -5.55557433	     35.34802198	    -10.31626810	      0.13728122	     72.25437800	      1.26107680	    -26.48556174	    -15.77408910	     -5.55557433	    -17.62378486	     -4.56627340	      6.37438393	    -30.79406839	    -30.31440174	    -32.91038883	    133.77353877	    113.17278569	     18.50024437	    -37.03280510	     12.35969736	    130.45964048	     99.11083567
      0.82000000	    -11.68179395	      0.67849643	      2.40831112	     -0.66795439	      1.50889632	     -0.55277274	     37.53187744	     -2.55468482	      5.29602342	     55.23815831	      0.96408774	    -17.06544178	     -7.42945453	     -5.57073611	     36.63353718	    -10.51949728	      0.38060407	     72.14607470	      1.25918655	    -26.53089450	    -15.21684566	     -5.57073611	    -18.08272943	     -4.80046518	      6.05063578	    -31.05942991	    -29.96988072	    -33.48447439	    133.34908894	    113.12678486	     18.54965522	    -37.31516696	     12.04368727	    129.92192314	     99.13898230
      0.83000000	    -11.91318136	      0.76852625	      2.63775808	     -0.65926878	      1.50632340	     -0.55125119	     37.77214116	     -2.94404128	      4.90387334	     52.49628813	      0.91623307	    -17.11254214	     -8.65097474	     -5.61890213	     37.80678134	    -10.76308756	      0.63034005	     71.70881886	      1.25155499	    -25.82714172	    -13.78276966	     -5.61890213	    -18.52936549	     -4.96206708	      5.90024293	    -31.58833598	    -29.58227957	    -34.15952909	    133.14497707	    113.07394368	     18.71991320	    -37.60925747	     11.90587070	    129.35309876	     99.32744867
      0.84000000	    -12.10760930	      1.03419932	      2.81229453	     -0.65029831	      1.50299483	     -0.54963333	     37.90337326	     -3.47630440	      4.56964785	     49.60660563	      0.86579860	    -17.57400112	     -9.63895593	     -5.67492649	     38.71362031	    -10.87228933	      0.62449024	     70.83908949	      1.23637535	    -25.09900317	    -12.45498737	     -5.67492649	    -18.96026666	     -5.36002130	      5.75042577	    -31.99723413	    -29.01321948	    -34.86478455	    132.88767836	    113.05458610	     18.99493431	    -37.95317905	     11.95542956	    128.70812351	     99.57731861
      0.85000000	    -12.44532558	      1.39155123	      2.95933407	     -0.64124634	      1.49849758	     -0.54814017	     38.14832735	     -4.07313299	      4.37948686	     46.67397410	      0.81461452	    -17.57110930	     -9.70451487	     -5.68634326	     39.63363435	    -10.81164123	      0.52908020	     69.66210161	      1.21583304	    -24.83893982	    -12.08255847	     -5.68634326	    -19.24640014	     -5.84165453	      5.45352024	    -32.34536999	    -28.70635265	    -35.25461185	    132.68968243	    112.90878321	     18.99921129	    -38.45305450	     11.81357996	    128.32853870	     99.56023320
      0.86000000	    -12.63853763	      1.60229457	      3.23548652	     -0.63196811	      1.49323623	     -0.54678607	     38.14039527	     -4.61671650	      3.83901821	     43.55639994	      0.76020259	    -19.09290833	    -10.44871362	     -5.73685095	     40.36340194	    -10.84353809	      0.60704351	     68.28862468	      1.19186134	    -23.66671426	    -10.19948940	     -5.73685095	    -19.66429136	     -6.10626201	      5.26394916	    -32.85225910	    -28.28000840	    -36.00503876	    132.61025842	    112.91265325	     19.37753055	    -38.84484365	     11.98282702	    127.78196716	     99.88674801
      0.87000000	    -12.97224903	      1.90509925	      3.52432732	     -0.62253063	      1.48686430	     -0.54546757	     38.27480386	     -5.26254756	      3.33521609	     40.52432986	      0.70728298	    -19.93896609	    -10.04729697	     -5.76347230	     41.10864945	    -10.74341881	      0.53866290	     66.62040691	      1.16274545	    -23.14636972	     -9.24705150	     -5.76347230	    -19.88488566	     -6.46759509	      4.93633785	    -33.23104538	    -27.90255413	    -36.51349261	    132.49045839	    112.82996849	     19.53629872	    -39.29500128	     11.92229525	    127.41301084	     99.96297078
      0.88000000	    -13.35876248	      2.19318282	      3.91715045	     -0.61299489	      1.47951243	     -0.54398062	     38.39063483	     -5.90086687	      2.79847814	     37.49222332	      0.65436274	    -20.95785535	     -9.51455660	     -5.78488185	     41.84788099	    -10.63902209	      0.43201234	     64.73296335	      1.12980334	    -22.56366334	     -8.27633741	     -5.78488185	    -20.02746795	     -6.81503835	      4.53815407	    -33.57543739	    -27.46360940	    -36.92297856	    132.43666408	    112.74671667	     19.74978361	    -39.83665642	     11.92066969	    127.11285310	     99.98275620
      0.89000000	    -13.65437893	      2.40169082	      4.35240746	     -0.60328229	      1.47120343	     -0.54247433	     38.33729585	     -6.44347405	      2.24286834	     34.47142524	      0.60163987	    -22.38573791	     -9.21086019	     -5.84270967	     42.41909072	    -10.55322768	      0.43621472	     62.70592321	      1.09442482	    -21.40305073	     -6.67892198	     -5.84270967	    -20.19197063	     -7.05179930	      4.31845990	    -34.13475736	    -26.95614070	    -37.54590391	    132.49438771	    112.94238077	     20.32973203	    -40.41621220	     12.41201448	    126.66828958	    100.21322691
      0.90000000	    -13.89189955	      2.67102178	      4.80505341	     -0.59334441	      1.46181965	     -0.54156503	     38.22182895	     -7.13087257	      1.62265391	     31.61720501	      0.55182433	    -23.42930916	     -7.91117096	     -5.86372787	     42.82255138	    -10.32231928	      0.30685817	     60.49812183	      1.05589142	    -21.06292262	     -5.96996161	     -5.86372787	    -20.33246585	     -7.25775420	      3.91162584	    -34.55037102	    -26.69259735	    -37.97151415	    132.54011122	    112.98034700	     20.63767117	    -41.02054351	     12.66371140	    126.37639483	    100.29189828
